HIERARCHY
ROOT root
{
	OFFSET	0.000000	0.000000	0.000000
	CHANNELS 6 Xposition Yposition Zposition Zrotation Yrotation Xrotation
	JOINT lhipjoint
	{
		OFFSET	0.000000	0.000000	0.000000
		CHANNELS 3 Zrotation Yrotation Xrotation
		JOINT lfemur
		{
			OFFSET	1.748569	-1.855662	0.691966
			CHANNELS 3 Zrotation Yrotation Xrotation
			JOINT ltibia
			{
				OFFSET	2.400029	-6.594030	0.000000
				CHANNELS 3 Zrotation Yrotation Xrotation
				JOINT lfoot
				{
					OFFSET	2.821691	-7.752540	0.000000
					CHANNELS 3 Zrotation Yrotation Xrotation
					JOINT ltoes
					{
						OFFSET	0.164659	-0.452396	2.268896
						CHANNELS 3 Zrotation Yrotation Xrotation
						End Site
						{
							OFFSET	0.000000	-0.000000	1.164860
						}
					}
				}
			}
		}
	}
	JOINT rhipjoint
	{
		OFFSET	0.000000	0.000000	0.000000
		CHANNELS 3 Zrotation Yrotation Xrotation
		JOINT rfemur
		{
			OFFSET	-1.641693	-1.855661	0.691966
			CHANNELS 3 Zrotation Yrotation Xrotation
			JOINT rtibia
			{
				OFFSET	-2.418139	-6.643787	0.000000
				CHANNELS 3 Zrotation Yrotation Xrotation
				JOINT rfoot
				{
					OFFSET	-2.805883	-7.709107	0.000000
					CHANNELS 3 Zrotation Yrotation Xrotation
					JOINT rtoes
					{
						OFFSET	-0.190980	-0.524716	2.254014
						CHANNELS 3 Zrotation Yrotation Xrotation
						End Site
						{
							OFFSET	-0.000000	-0.000000	1.163330
						}
					}
				}
			}
		}
	}
	JOINT lowerback
	{
		OFFSET	0.000000	0.000000	0.000000
		CHANNELS 3 Zrotation Yrotation Xrotation
		JOINT upperback
		{
			OFFSET	-0.028284	2.146896	-0.110610
			CHANNELS 3 Zrotation Yrotation Xrotation
			JOINT thorax
			{
				OFFSET	-0.001672	2.152996	0.007593
				CHANNELS 3 Zrotation Yrotation Xrotation
				JOINT lowerneck
				{
					OFFSET	0.009440	2.153398	0.059488
					CHANNELS 3 Zrotation Yrotation Xrotation
					JOINT upperneck
					{
						OFFSET	-0.092956	1.901179	0.071965
						CHANNELS 3 Zrotation Yrotation Xrotation
						JOINT head
						{
							OFFSET	0.084895	1.895262	-0.246037
							CHANNELS 3 Zrotation Yrotation Xrotation
							End Site
							{
								OFFSET	0.031856	1.921087	-0.094834
							}
						}
					}
				}
				JOINT lclavicle
				{
					OFFSET	0.009440	2.153398	0.059488
					CHANNELS 3 Zrotation Yrotation Xrotation
					JOINT lhumerus
					{
						OFFSET	3.215687	1.446445	-0.037204
						CHANNELS 3 Zrotation Yrotation Xrotation
						JOINT lradius
						{
							OFFSET	5.476510	-0.000000	-0.000000
							CHANNELS 3 Zrotation Yrotation Xrotation
							JOINT lwrist
							{
								OFFSET	3.090580	-0.000000	-0.000000
								CHANNELS 3 Zrotation Yrotation Xrotation
								JOINT lhand
								{
									OFFSET	1.545290	-0.000000	-0.000000
									CHANNELS 3 Zrotation Yrotation Xrotation
									JOINT lfingers
									{
										OFFSET	0.771611	-0.000000	-0.000000
										CHANNELS 3 Zrotation Yrotation Xrotation
										End Site
										{
											OFFSET	0.622093	-0.000000	-0.000000
										}
									}
								}
								JOINT lthumb
								{
									OFFSET	1.545290	-0.000000	-0.000000
									CHANNELS 3 Zrotation Yrotation Xrotation
									End Site
									{
										OFFSET	0.631591	-0.000000	0.631591
									}
								}
							}
						}
					}
				}
				JOINT rclavicle
				{
					OFFSET	0.009440	2.153398	0.059488
					CHANNELS 3 Zrotation Yrotation Xrotation
					JOINT rhumerus
					{
						OFFSET	-3.386928	1.289042	-0.070931
						CHANNELS 3 Zrotation Yrotation Xrotation
						JOINT rradius
						{
							OFFSET	-5.141820	-0.000000	-0.000000
							CHANNELS 3 Zrotation Yrotation Xrotation
							JOINT rwrist
							{
								OFFSET	-3.355650	-0.000000	-0.000000
								CHANNELS 3 Zrotation Yrotation Xrotation
								JOINT rhand
								{
									OFFSET	-1.677820	-0.000000	-0.000000
									CHANNELS 3 Zrotation Yrotation Xrotation
									JOINT rfingers
									{
										OFFSET	-0.801042	-0.000000	-0.000000
										CHANNELS 3 Zrotation Yrotation Xrotation
										End Site
										{
											OFFSET	-0.645821	-0.000000	-0.000000
										}
									}
								}
								JOINT rthumb
								{
									OFFSET	-1.677820	-0.000000	-0.000000
									CHANNELS 3 Zrotation Yrotation Xrotation
									End Site
									{
										OFFSET	-0.655681	-0.000000	0.655681
									}
								}
							}
						}
					}
				}
			}
		}
	}
}
MOTION
Frames:	10
Frame Time:	0.008333
17.146000	17.839100	-14.069000	3.228370	-52.801300	0.145598	0.000000	0.000000	0.000000	-26.559702	-6.372178	-9.021895	1.811921	8.462814	24.128875	0.929945	7.432060	-22.361797	0.906676	-6.067873	-16.981478	0.000000	0.000000	0.000000	20.539146	5.661899	-11.392806	-2.496555	-9.831637	28.433228	-1.073254	-9.004076	-24.767822	-0.161877	2.592218	-7.145432	-1.983110	1.701730	1.416280	-0.470729	2.224640	-0.404230	0.571679	1.124240	-1.264360	-5.462390	-2.650000	-10.073900	1.805300	-3.116750	17.857800	1.198470	-1.739670	7.251410	0.000000	-0.000000	0.000000	-84.094611	3.526631	33.881088	13.890612	-22.578111	-2.785972	-0.000000	0.000000	-5.625170	3.846054	26.747746	1.733044	-7.125020	0.000000	-0.000000	-27.565084	54.566492	-6.870996	0.000000	-0.000000	0.000000	86.329842	-2.233138	20.399209	-11.530881	19.097395	-1.946070	0.000000	0.000000	4.482370	-11.548412	16.482845	-3.318001	7.125020	-0.000000	-0.000000	10.811432	-13.389563	8.163705
17.146500	17.838500	-14.066300	3.232310	-52.790800	0.117410	0.000000	0.000000	0.000000	-26.572636	-6.368848	-8.984016	1.809901	8.458350	24.115140	0.931241	7.410823	-22.357389	0.889917	-6.013026	-16.822222	0.000000	0.000000	0.000000	20.531975	5.661922	-11.360274	-2.495811	-9.830284	28.428872	-1.064747	-9.054882	-24.739555	-0.165382	2.619996	-7.222514	-2.001440	1.697800	1.488690	-0.470857	2.217220	-0.399900	0.579703	1.120900	-1.301040	-5.460470	-2.643960	-10.053900	1.845590	-3.117920	17.861800	1.211400	-1.736810	7.249660	0.000000	-0.000000	0.000000	-84.087111	3.559864	33.799570	13.889908	-22.577103	-2.785701	0.000000	0.000000	-5.557430	3.924414	26.821302	1.772941	-7.125020	0.000000	-0.000000	-27.540730	54.646128	-6.919502	0.000000	-0.000000	0.000000	86.325936	-2.252849	20.415431	-11.521587	19.083309	-1.943031	0.000000	0.000000	4.449550	-11.488504	16.494131	-3.302549	7.125020	-0.000000	-0.000000	10.851172	-13.383116	8.196352
17.145900	17.837900	-14.062500	3.183210	-52.770500	0.180418	0.000000	0.000000	0.000000	-26.546524	-6.419028	-9.040725	1.825190	8.492051	24.218880	0.938288	7.403634	-22.414177	0.891670	-6.018788	-16.838944	0.000000	0.000000	0.000000	20.554758	5.632021	-11.353058	-2.486384	-9.813105	28.373607	-1.067131	-9.034655	-24.742777	-0.166485	2.628679	-7.246612	-1.993670	1.680280	1.482730	-0.457575	2.194290	-0.406032	0.589668	1.109530	-1.303630	-5.414890	-2.618550	-9.953620	1.818340	-3.091000	17.788300	1.198880	-1.723190	7.205630	0.000000	0.000000	0.000000	-84.090550	3.618437	33.684470	13.909440	-22.605097	-2.793205	-0.000000	0.000000	-5.447100	3.923103	26.954553	1.780489	-7.125020	0.000000	-0.000000	-27.633800	54.763392	-7.027392	0.000000	0.000000	0.000000	86.306623	-2.267038	20.453039	-11.502611	19.054541	-1.936831	0.000000	0.000000	4.424570	-11.466307	16.430560	-3.283683	7.125020	-0.000000	-0.000000	10.866239	-13.448361	8.192950
17.149400	17.838900	-14.064600	2.980820	-52.725100	0.403076	0.000000	0.000000	0.000000	-26.386520	-6.452842	-9.197122	1.840628	8.525911	24.323215	0.944034	7.318265	-22.401483	0.883063	-5.990433	-16.756666	0.000000	0.000000	0.000000	20.704950	5.803703	-11.340248	-2.476777	-9.795556	28.317187	-1.072061	-9.115313	-24.845486	-0.145146	2.455209	-6.765473	-1.887730	1.684510	1.529890	-0.440482	2.201020	-0.420719	0.546001	1.112550	-1.341920	-5.345950	-2.637780	-10.003900	1.784310	-3.119970	17.806400	1.173110	-1.735180	7.219780	0.000000	-0.000000	0.000000	-84.053931	3.629357	33.695290	13.938196	-22.646285	-2.804268	0.000000	-0.000000	-5.443230	3.964126	27.061658	1.805761	-7.125020	0.000000	-0.000000	-27.668863	54.865456	-7.108512	0.000000	-0.000000	0.000000	86.357453	-2.188227	20.219106	-11.441532	18.961861	-1.916937	-0.000000	-0.000000	4.593520	-11.449250	16.344083	-3.261929	7.125020	-0.000000	-0.000000	10.878143	-13.535987	8.181792
17.157100	17.840400	-14.070500	2.629190	-52.724500	0.710373	0.000000	0.000000	0.000000	-26.120676	-6.490590	-9.346768	1.856558	8.560678	24.430452	0.953299	7.245205	-22.429150	0.886735	-6.002549	-16.791819	0.000000	0.000000	0.000000	20.975558	6.042175	-11.302967	-2.466612	-9.776943	28.257387	-1.049779	-9.361887	-24.863200	-0.142972	2.436830	-6.714533	-1.657450	1.720060	1.672610	-0.419707	2.250120	-0.451606	0.431931	1.136190	-1.446640	-5.307330	-2.657440	-10.059000	1.805710	-3.155950	17.886500	1.169490	-1.748510	7.256500	0.000000	-0.000000	0.000000	-83.973253	3.629201	33.827344	13.964796	-22.684359	-2.814518	0.000000	0.000000	-5.517740	3.884195	27.202993	1.777792	-7.125020	0.000000	-0.000000	-27.844104	54.974805	-7.235665	0.000000	-0.000000	0.000000	86.421279	-2.162846	20.066767	-11.408001	18.910929	-1.906056	0.000000	0.000000	4.656700	-11.445345	16.209195	-3.234658	7.125020	-0.000000	-0.000000	10.881769	-13.670840	8.153061
17.160400	17.842500	-14.069200	2.427960	-52.777800	0.883541	0.000000	0.000000	0.000000	-25.987945	-6.522163	-9.421225	1.870287	8.590499	24.522521	0.956335	7.285685	-22.485488	0.897897	-6.039212	-16.898235	0.000000	0.000000	0.000000	21.117437	6.102061	-11.304027	-2.458666	-9.762359	28.210557	-1.012522	-9.561131	-24.725272	-0.171940	2.671179	-7.364589	-1.524390	1.745630	1.742600	-0.386037	2.286090	-0.481124	0.388009	1.153730	-1.512990	-5.353480	-2.644840	-9.971170	1.830770	-3.140110	17.846200	1.187870	-1.742060	7.228410	0.000000	-0.000000	0.000000	-83.967232	3.687953	33.899771	13.991411	-22.722428	-2.824790	0.000000	0.000000	-5.533490	3.742754	27.300910	1.718596	-7.125020	0.000000	-0.000000	-28.048225	55.033782	-7.336866	0.000000	-0.000000	0.000000	86.363363	-2.255955	20.291604	-11.449638	18.974168	-1.919572	0.000000	0.000000	4.373290	-11.458709	16.120670	-3.221349	7.125020	-0.000000	-0.000000	10.873543	-13.757992	8.126257
17.160100	17.843100	-14.064500	2.468050	-52.833400	0.869656	0.000000	0.000000	0.000000	-26.024373	-6.510033	-9.470783	1.880005	8.611529	24.587498	0.964154	7.266634	-22.539904	0.869315	-5.944829	-16.624432	0.000000	0.000000	0.000000	21.070691	6.122906	-11.302428	-2.452813	-9.751598	28.176018	-1.003598	-9.550966	-24.644916	-0.175941	2.701925	-7.449959	-1.582490	1.746620	1.764750	-0.360696	2.285700	-0.507027	0.445076	1.154560	-1.555300	-5.436130	-2.641870	-9.916860	1.849410	-3.128600	17.833500	1.209270	-1.740840	7.216080	-0.000000	0.000000	0.000000	-84.017109	3.773672	33.878665	14.004577	-22.741251	-2.829877	-0.000000	0.000000	-5.586620	3.718515	27.351893	1.710382	-7.125020	0.000000	-0.000000	-28.107410	55.073866	-7.382612	-0.000000	0.000000	0.000000	86.278716	-2.320596	20.435982	-11.464065	18.996067	-1.924266	0.000000	0.000000	4.209830	-11.397642	16.092496	-3.198316	7.125020	-0.000000	-0.000000	10.914331	-13.790875	8.150174
17.161100	17.843400	-14.060900	2.422480	-52.852200	0.913070	0.000000	0.000000	0.000000	-26.006851	-6.504935	-9.474333	1.880062	8.611653	24.587882	0.961383	7.283915	-22.528357	0.858780	-5.909622	-16.522421	0.000000	0.000000	0.000000	21.085849	6.158104	-11.287042	-2.450568	-9.747467	28.162764	-1.007368	-9.524977	-24.654178	-0.170313	2.658581	-7.329613	-1.594960	1.735220	1.813420	-0.330054	2.269520	-0.526594	0.481872	1.147160	-1.604080	-5.424100	-2.650620	-9.913430	1.791310	-3.133160	17.870200	1.187890	-1.748000	7.226610	-0.000000	0.000000	0.000000	-84.051401	3.847523	33.859819	14.016688	-22.758560	-2.834561	0.000000	0.000000	-5.612160	3.851347	27.347608	1.771367	-7.125020	0.000000	-0.000000	-27.977350	55.095619	-7.359576	-0.000000	0.000000	0.000000	86.241100	-2.337026	20.460041	-11.438960	18.957956	-1.916102	0.000000	0.000000	4.276330	-11.416657	16.068171	-3.199079	7.125020	-0.000000	-0.000000	10.901947	-13.813638	8.135222
17.162000	17.843500	-14.056700	2.284280	-52.833300	1.030730	0.000000	0.000000	0.000000	-25.932220	-6.501518	-9.434451	1.870474	8.590904	24.523771	0.961874	7.261767	-22.516417	0.863481	-5.925360	-16.568011	0.000000	0.000000	0.000000	21.162060	6.126407	-11.284741	-2.452239	-9.750542	28.172632	-1.029903	-9.404077	-24.737794	-0.149751	2.493682	-6.872129	-1.500700	1.734200	1.852450	-0.311490	2.270010	-0.532635	0.446803	1.146780	-1.629210	-5.435110	-2.669300	-9.934700	1.782610	-3.154730	17.907500	1.184490	-1.760190	7.243500	0.000000	0.000000	0.000000	-84.033622	3.884164	33.987505	14.030625	-22.778473	-2.839955	0.000000	0.000000	-5.644330	3.978890	27.372706	1.831723	-7.125020	0.000000	-0.000000	-27.872981	55.142149	-7.361396	0.000000	0.000000	0.000000	86.221006	-2.388890	20.551092	-11.456907	18.985202	-1.921936	0.000000	0.000000	4.227690	-11.501993	15.978540	-3.206117	7.125020	-0.000000	-0.000000	10.845915	-13.896429	8.072458
17.160700	17.844900	-14.048100	2.304900	-52.794100	1.035650	0.000000	0.000000	0.000000	-25.977082	-6.543739	-9.363873	1.859421	8.566906	24.449672	0.970254	7.235817	-22.570604	0.858497	-5.908672	-16.519667	0.000000	0.000000	0.000000	21.110335	6.014119	-11.307255	-2.453222	-9.752351	28.178437	-1.058058	-9.219014	-24.815552	-0.135731	2.374570	-6.542021	-1.491000	1.712050	1.804610	-0.312120	2.241840	-0.512290	0.443709	1.132260	-1.580560	-5.462200	-2.659830	-9.938710	1.775180	-3.134690	17.885500	1.188430	-1.752660	7.236730	0.000000	-0.000000	0.000000	-84.044473	3.861373	34.013511	14.009985	-22.748981	-2.831969	0.000000	0.000000	-5.618920	3.965524	27.335238	1.823250	-7.125020	0.000000	-0.000000	-27.859202	55.106572	-7.332404	0.000000	-0.000000	0.000000	86.191535	-2.385721	20.538427	-11.466023	18.999037	-1.924903	0.000000	0.000000	4.282750	-11.503608	15.936480	-3.198374	7.125020	-0.000000	-0.000000	10.845251	-13.938294	8.062148
